PathFileType	4	(X/Y/Z)	C:/Users/opensim2020/Desktop/walking_exp_matlab/subject01_walking04_straight_01.trc	
DataRate	CameraRate	NumFrames	NumMarkers	Units	OrigDataRate	OrigDataStartFrame	OrigNumFrames	
100.00	100.00	4	43	mm	100.00	812	216	
Frame#	Time	LFHD			RFHD			LBHD			RBHD			C7			T10			CLAV			STRN			RBAK			LSHO			LUPA			LELB			LFRM			LWRA			LWRB			LFIN			RSHO			RUPA			RELB			RFRM			RWRA			RWRB			RFIN			LASI			RASI			LPSI			RPSI			LTHI			LKNE			LTIB			LANK			LHEE			LTOE			RTHI			RKNE			RTIB			RANK			RHEE			RTOE			*39			*40			*41			*42			
		X1	Y1	Z1	X2	Y2	Z2	X3	Y3	Z3	X4	Y4	Z4	X5	Y5	Z5	X6	Y6	Z6	X7	Y7	Z7	X8	Y8	Z8	X9	Y9	Z9	X10	Y10	Z10	X11	Y11	Z11	X12	Y12	Z12	X13	Y13	Z13	X14	Y14	Z14	X15	Y15	Z15	X16	Y16	Z16	X17	Y17	Z17	X18	Y18	Z18	X19	Y19	Z19	X20	Y20	Z20	X21	Y21	Z21	X22	Y22	Z22	X23	Y23	Z23	X24	Y24	Z24	X25	Y25	Z25	X26	Y26	Z26	X27	Y27	Z27	X28	Y28	Z28	X29	Y29	Z29	X30	Y30	Z30	X31	Y31	Z31	X32	Y32	Z32	X33	Y33	Z33	X34	Y34	Z34	X35	Y35	Z35	X36	Y36	Z36	X37	Y37	Z37	X38	Y38	Z38	X39	Y39	Z39	X40	Y40	Z40	X41	Y41	Z41	X42	Y42	Z42	X43	Y43	Z43	

1	0.000	-1130.36841	-989.88641	1670.20972	-1016.49213	-980.13470	1685.35608	-1121.22815	-1091.80505	1596.36938	-1000.92828	-1084.67224	1609.71680	-1058.79907	-1102.64844	1429.96924	-1026.22876	-1136.12683	1138.29175	-1064.48193	-956.55457	1363.95044	-1062.03223	-913.59314	1208.00476	-961.54877	-1147.56116	1241.83167	-1221.27112	-1030.92200	1376.74353	-1297.40930	-1054.95215	1187.70020	-1295.86975	-1056.82324	1038.11218	-1321.40625	-1011.17438	934.07593	-1306.64648	-923.22296	825.60553	-1328.38953	-978.65295	816.11804	-1337.55908	-926.64923	748.93170	-910.15198	-1005.87238	1401.48694	-790.75360	-1058.75842	1211.70020	-780.59729	-1064.19458	1086.69495	-747.05054	-1038.18445	969.60950	-769.63385	-964.93744	848.41882	-726.66669	-1005.07422	852.74567	-729.01782	-971.38556	773.66180	-1137.88330	-968.79297	930.15063	-921.00757	-956.66467	932.91980	-1073.73486	-1153.55615	943.80481	-928.72137	-1143.13025	943.38959	-1195.69397	-989.34979	602.37445	-1180.02246	-985.75433	468.21637	-1187.64136	-1039.39258	284.23560	-1135.78247	-1061.79993	65.38009	-1079.82898	-1102.04858	35.90949	-1151.46973	-913.12793	29.73796	-855.50281	-966.08252	598.87634	-873.49109	-949.17059	442.67422	-866.90283	-1093.12891	342.65161	-906.35059	-1239.85083	194.52127	-961.20746	-1295.98047	198.01657	-910.69611	-1181.97559	60.91990	-1041.39136	-1001.34888	1713.64111	-3101.88452	1973.16992	1023.44330	-3140.49854	2012.54712	1022.06451			 
2	0.010	-1132.23230	-981.71893	1670.78101	-1018.43970	-971.88013	1685.61438	-1123.37744	-1083.69592	1596.97217	-1003.02948	-1076.85645	1610.29797	-1061.29456	-1094.74036	1430.49329	-1028.53552	-1128.63757	1138.92395	-1065.74268	-948.87939	1364.34302	-1063.67078	-905.95911	1208.41492	-964.34253	-1140.38977	1242.44604	-1223.29285	-1022.05786	1377.22644	-1299.69238	-1044.56433	1188.41785	-1298.97217	-1045.32251	1038.83777	-1324.68274	-998.23767	935.66187	-1310.18030	-908.76447	828.30975	-1331.69556	-964.07855	818.04785	-1341.38306	-911.12848	751.76367	-912.14105	-998.97107	1401.92944	-793.17938	-1053.12170	1212.43726	-783.01575	-1059.04492	1087.66199	-748.97833	-1034.22583	970.61035	-770.62415	-962.36224	848.43164	-727.97186	-1002.58386	853.29285	-729.81238	-969.51385	773.74109	-1140.01233	-961.48743	930.74231	-922.79144	-948.93066	934.30316	-1075.18738	-1146.24475	944.17206	-930.47174	-1134.48096	943.45001	-1196.79871	-984.76202	602.42078	-1181.16760	-983.03796	468.02682	-1188.23474	-1038.08215	284.41446	-1135.96594	-1061.75110	65.50515	-1079.96143	-1102.21619	36.42033	-1151.72717	-913.32184	29.76456	-857.31378	-953.71741	600.54340	-875.19159	-933.86316	444.76492	-870.11761	-1076.62366	343.07645	-910.97711	-1220.50879	192.53018	-966.25684	-1276.61108	193.62392	-913.26398	-1157.84851	61.72686	-1043.10657	-993.26947	1714.09143	-3101.80591	1973.06494	1023.37915	-3140.59644	2012.53979	1021.91949			 
3	0.020	-1133.86914	-973.40088	1671.27197	-1019.98389	-964.09747	1686.20911	-1125.38416	-1075.52026	1597.61560	-1005.04907	-1069.01611	1610.83398	-1063.70227	-1086.94141	1430.96338	-1030.66870	-1121.17981	1139.48816	-1067.74573	-941.12030	1364.78992	-1065.29883	-898.35498	1208.81458	-966.85681	-1133.16565	1243.07947	-1225.26306	-1013.51349	1377.85388	-1302.02258	-1034.32422	1189.21680	-1301.94653	-1033.94629	1039.58997	-1327.58252	-985.38300	937.09436	-1313.56555	-894.26270	831.16278	-1334.98132	-949.57928	819.97241	-1345.02454	-895.60870	754.76147	-914.03748	-991.63806	1402.67480	-795.56085	-1047.54443	1213.18005	-785.26221	-1053.96326	1088.66138	-750.86182	-1030.23584	971.55786	-771.70056	-959.60236	848.50348	-729.27802	-1000.03882	853.99762	-730.60419	-967.85229	774.05554	-1141.39783	-955.30554	930.67731	-925.29315	-942.95471	934.55438	-1076.62317	-1138.92139	944.55969	-931.89587	-1127.38159	944.71332	-1197.86731	-980.16022	602.37653	-1182.26685	-980.20172	467.83539	-1188.80298	-1036.82349	284.56619	-1136.02820	-1061.58118	65.56107	-1080.01123	-1101.98828	36.83057	-1151.77026	-913.26953	29.66891	-859.05273	-941.39832	602.37006	-877.37842	-919.47766	446.73300	-873.35547	-1060.01465	342.70749	-915.74609	-1200.33911	189.41217	-971.28235	-1256.81079	188.47359	-915.88202	-1132.30505	61.87841	-1044.82959	-985.23541	1714.33057	-3101.80566	1973.20972	1023.38837	-3140.65918	2012.49585	1021.99756			 
4	0.030	-1135.36377	-965.03729	1671.66528	-1021.25385	-955.47626	1686.71399	-1127.23987	-1067.30933	1598.26074	-1006.94543	-1061.17627	1611.32898	-1065.96570	-1078.97632	1431.30103	-1032.64319	-1113.68616	1140.06470	-1069.53674	-933.23718	1365.30322	-1066.84033	-890.72498	1209.21545	-969.24634	-1125.88074	1243.62854	-1227.15137	-1005.01587	1378.42407	-1304.42590	-1024.24744	1190.02417	-1304.74683	-1022.68799	1040.32471	-1330.53613	-972.43939	938.44019	-1316.83972	-879.79767	834.10486	-1337.97217	-934.99609	821.93378	-1348.51355	-880.04297	757.82983	-915.87512	-984.55591	1403.21191	-797.83887	-1042.09705	1213.84119	-787.57068	-1048.99500	1089.53003	-752.75385	-1026.28650	972.39417	-772.61035	-956.61713	848.60492	-730.67902	-997.83600	854.65521	-731.52173	-965.91809	774.29834	-1143.44177	-947.83966	931.25879	-927.21002	-935.84039	935.61053	-1078.00842	-1131.60510	945.03986	-933.27130	-1119.36340	945.23816	-1198.82385	-975.59296	602.31140	-1183.10864	-977.48785	467.59250	-1189.25586	-1035.57617	284.74588	-1136.29211	-1061.26074	66.00639	-1079.93604	-1101.71448	37.63895	-1152.06177	-913.31091	29.33673	-860.70752	-929.61530	604.41895	-879.13611	-904.62921	449.24139	-876.49146	-1043.40710	341.76123	-920.61664	-1179.97583	185.56293	-976.35992	-1236.14050	182.14233	-918.83551	-1106.82068	61.42055	-1046.35999	-977.00818	1714.69897	-3101.84033	1973.19202	1023.51837	-3140.75537	2012.47034	1021.93774			 
